# xmcd
#
# Track frame offsets:
#	150
#	15192
#	27003
#	39268
#	57346
#	74905
#	89702
#	103182
#	120093
#	138530
#	152041
#	165515
#	177622
#	191590
#	204002
#	218099
#	231551
#
# Disc length: 3253 seconds
#
# Revision: 1
# Processed by: cddbd v1.5.2PL0 Copyright (c) Steve Scherf et al.
# Submitted via: audiograbber 1.83.01
#
DISCID=e80cb311
DTITLE=Fernando and Sorocaba  - Acústico na Ópera de Arame
DYEAR=1900
DGENRE=Country
TTITLE0=A verdade
TTITLE1=Eu acho é pouco
TTITLE2=Falo ou não falo
TTITLE3=Férias em Salvador
TTITLE4=6 de janeiro de 2003
TTITLE5=Apelou
TTITLE6=Pega eu
TTITLE7=Nada faz sentido
TTITLE8=Everest (part. Luan Santana)
TTITLE9=To passando mal
TTITLE10=Perdeu
TTITLE11=E tenso
TTITLE12=Ta tirando onda
TTITLE13=O cara
TTITLE14=Teus segredos
TTITLE15=As mina pira
TTITLE16=E tenso
EXTD=
EXTT0=
EXTT1=
EXTT2=
EXTT3=
EXTT4=
EXTT5=
EXTT6=
EXTT7=
EXTT8=
EXTT9=
EXTT10=
EXTT11=
EXTT12=
EXTT13=
EXTT14=
EXTT15=
EXTT16=
PLAYORDER=
